<svg width="118" height="40" viewBox="0 0 118 40" fill="none" xmlns="http://www.w3.org/2000/svg">
<g clip-path="url(#clip0_734_791)">
<path d="M48.6753 37.4843C48.4601 37.4843 48.2812 37.2691 48.2812 36.658V25.2413C48.2812 22.0468 44.4392 21.2205 42.0347 21.2205C39.0555 21.2205 36.6857 22.5121 36.6857 25.0625C36.6857 26.3906 37.4392 27.1805 38.625 27.1805C40.6354 27.1805 40.6354 25.2066 40.6354 25.2066L39.8455 23.9496C39.809 22.6215 40.6719 22.118 42.1441 22.118C43.6163 22.118 44.4062 23.1232 44.4062 25.2413V26.8923C43.3646 28.3281 36.1493 28.9392 36.1493 35.0416C36.1493 37.9861 37.6927 39.8889 40.566 39.8889C42.5052 39.8889 43.7257 38.2014 44.4427 36.4774C44.5868 38.8472 45.5555 39.8889 47.2066 39.8889C48.6423 39.8889 49.4323 38.6684 49.8628 37.8784L49.3246 37.1597C49.1094 37.3385 48.8576 37.4826 48.6788 37.4826L48.6753 37.4843ZM44.4028 32.96C44.4028 35.1493 43.0382 37.8784 41.8889 37.6996C40.7048 37.5555 39.9496 36.1198 39.9496 34.0017C39.9496 30.3038 42.9653 29.1909 44.401 28.0416V32.96H44.4028Z" fill="#2F2F2E"/>
<path d="M56.2813 15.8003H55.7431C54.3785 18.2065 53.3368 19.4982 50.9688 21.5798V22.4774H52.4045V35.6892C52.4045 38.6336 53.3733 39.8906 55.2049 39.8906C57.1788 39.8906 58.2917 37.592 58.7587 36.7673L58.0052 36.3003C57.5017 36.8749 57.0712 37.2343 56.7483 37.2343C56.4618 37.2343 56.2813 36.9114 56.2813 36.1927V22.4774H59.3681V21.5798H56.2813V15.8003Z" fill="#2F2F2E"/>
<path d="M68.8281 37.9514C66.8542 37.9514 64.0174 35.5451 64.0174 28.5451H72.2743V27.6475C72.2743 25.0989 71.0174 21.2205 67.2847 21.2205C62.7604 21.2205 60.3195 25.1701 60.3195 30.5555C60.3195 35.9409 63.1198 39.8906 67.4636 39.8906C70.9462 39.8906 72.2743 36.7673 72.4184 34.5416H71.5208C71.0174 36.9114 70.2639 37.9531 68.8281 37.9531V37.9514ZM67.1406 22.118C68.5052 22.118 68.5052 25.0625 68.5052 27.6475H64.0538C64.2691 23.9861 65.7049 22.118 67.1406 22.118Z" fill="#2F2F2E"/>
<path d="M79.6511 12.6041H79.1129C77.4619 13.7882 76.3837 14.2552 74.231 14.7586V15.2968L75.7744 16.2656V38.0225L74.231 38.9913V39.5295H81.1962V38.9913L79.6528 38.0225V12.6041H79.6511Z" fill="#2F2F2E"/>
<path d="M85.9652 18.6007C87.2222 18.6007 88.2638 17.7031 88.2638 16.3385C88.2638 14.9739 87.2222 14.0399 85.9652 14.0399C84.7083 14.0399 83.6666 14.9739 83.6666 16.3385C83.6666 17.7031 84.7083 18.6007 85.9652 18.6007Z" fill="#2F2F2E"/>
<path d="M88.4062 21.5798H87.868C86.217 22.7639 85.1389 23.2309 82.9861 23.7343V24.2725L84.5295 25.2413V38.0225L82.9861 38.9913V39.5295H89.9514V38.9913L88.408 38.0225V21.5798H88.4062Z" fill="#2F2F2E"/>
<path d="M100.179 37.9514C98.2049 37.9514 95.3681 35.5451 95.3681 28.5451H103.625V27.6475C103.625 25.0989 102.368 21.2205 98.6354 21.2205C94.1111 21.2205 91.6702 25.1701 91.6702 30.5555C91.6702 35.9409 94.4705 39.8906 98.8143 39.8906C102.297 39.8906 103.625 36.7673 103.769 34.5416H102.872C102.368 36.9114 101.615 37.9531 100.179 37.9531V37.9514ZM98.4913 22.118C99.8559 22.118 99.8559 25.0625 99.8559 27.6475H95.4045C95.6198 23.9861 97.0556 22.118 98.4913 22.118Z" fill="#2F2F2E"/>
<path d="M115.417 21.2205C113.443 21.2205 111.97 22.908 111 24.3802V21.5798H110.462C108.811 22.7639 107.733 23.2309 105.58 23.7343V24.2725L107.123 25.2413V38.0225L105.58 38.9913V39.5295H112.545V38.9913L111.002 38.0225V25.7448C111.828 24.6684 112.76 23.8055 113.408 23.8055L115.562 25.1701C115.562 25.1701 117.536 25.1701 117.536 23.1597C117.536 21.9757 116.783 21.2205 115.418 21.2205H115.417Z" fill="#2F2F2E"/>
<path d="M11.9097 0H8.75V5H11.9097C17.4236 5 21.9097 9.48611 21.9097 15V40H26.9097V15C26.9097 6.71528 20.1944 0 11.9097 0Z" fill="#2F2F2E"/>
<path d="M8.75 11.9097C3.94097 11.9097 0.0399306 15.7899 0.00173611 20.5902H0V39.9999H17.5V20.5902C17.4618 15.7899 13.5608 11.9097 8.75174 11.9097H8.75ZM12.6389 35.1388H4.86111V20.6284C4.87847 18.5017 6.62326 16.7708 8.75 16.7708C10.8767 16.7708 12.6215 18.5017 12.6372 20.6284V20.8177V35.1388H12.6389Z" fill="#2F2F2E"/>
</g>
<defs>
<clipPath id="clip0_734_791">
<rect width="117.535" height="40" fill="white"/>
</clipPath>
</defs>
</svg>
