<svg width="20" height="20" viewBox="0 0 20 20" fill="none" xmlns="http://www.w3.org/2000/svg">
<g clip-path="url(#clip0_386_617)">
<path d="M0.832031 0.833374H4.16536L6.3987 11.9917C6.4749 12.3754 6.68362 12.72 6.98832 12.9653C7.29302 13.2106 7.67428 13.3409 8.06537 13.3334H16.1654C16.5565 13.3409 16.9377 13.2106 17.2424 12.9653C17.5471 12.72 17.7558 12.3754 17.832 11.9917L19.1654 5.00004H4.9987M8.33203 17.5C8.33203 17.9603 7.95894 18.3334 7.4987 18.3334C7.03846 18.3334 6.66536 17.9603 6.66536 17.5C6.66536 17.0398 7.03846 16.6667 7.4987 16.6667C7.95894 16.6667 8.33203 17.0398 8.33203 17.5ZM17.4987 17.5C17.4987 17.9603 17.1256 18.3334 16.6654 18.3334C16.2051 18.3334 15.832 17.9603 15.832 17.5C15.832 17.0398 16.2051 16.6667 16.6654 16.6667C17.1256 16.6667 17.4987 17.0398 17.4987 17.5Z" stroke="black" stroke-width="1.66667" stroke-linecap="round" stroke-linejoin="round"/>
</g>
<defs>
<clipPath id="clip0_386_617">
<rect width="20" height="20" fill="white"/>
</clipPath>
</defs>
</svg>
